# xmcd
#
# Track frame offsets:
#	150
#	14651
#	36201
#	52956
#	67088
#	89226
#	105407
#	121696
#	132328
#	148170
#
# Disc length: 2155 seconds
#
# Revision: 1
# Processed by: cddbd v1.5.2PL0 Copyright (c) Steve Scherf et al.
# Submitted via: EasyCDDAExtractor 11.1.0.1
#
DISCID=9108690a
DTITLE=The Flying Burrito Brothers
DYEAR=1971
DGENRE=Classic Rock
TTITLE0=White Line Fever
TTITLE1=Colorado
TTITLE2=Hand To Mouth
TTITLE3=Tried So Hard
TTITLE4=Just Cant Be
TTITLE5=To Ramona
TTITLE6=Four Days of Rain
TTITLE7=Cant You Hear Me Calling
TTITLE8=All Alone
TTITLE9=Why Are You Crying
EXTD=
EXTT0=
EXTT1=
EXTT2=
EXTT3=
EXTT4=
EXTT5=
EXTT6=
EXTT7=
EXTT8=
EXTT9=
PLAYORDER=
